<mxfile host="app.diagrams.net" modified="2024-03-12T12:08:14.600Z" agent="Mozilla/5.0 (Windows NT 10.0; Win64; x64) AppleWebKit/537.36 (KHTML, like Gecko) Chrome/120.0.0.0 YaBrowser/24.1.0.0 Safari/537.36" etag="FZfqXgRPc-G21TQxvSkL" version="24.0.5" type="google">
  <diagram id="R2lEEEUBdFMjLlhIrx00" name="Page-1">
    <mxGraphModel grid="1" page="1" gridSize="10" guides="1" tooltips="1" connect="1" arrows="1" fold="1" pageScale="1" pageWidth="1100" pageHeight="1700" math="0" shadow="0" extFonts="Permanent Marker^https://fonts.googleapis.com/css?family=Permanent+Marker">
      <root>
        <mxCell id="0" />
        <mxCell id="1" parent="0" />
        <mxCell id="6DvJQ7CilbZiGJrXRZ5k-17" value="&lt;font style=&quot;font-size: 18px;&quot;&gt;Клиент&lt;/font&gt;" style="rounded=0;whiteSpace=wrap;html=1;" vertex="1" parent="1">
          <mxGeometry x="198" y="120" width="120" height="60" as="geometry" />
        </mxCell>
        <mxCell id="6DvJQ7CilbZiGJrXRZ5k-18" value="&lt;font style=&quot;font-size: 18px;&quot;&gt;Заказ клиента&lt;/font&gt;" style="rounded=0;whiteSpace=wrap;html=1;" vertex="1" parent="1">
          <mxGeometry x="398" y="120" width="120" height="60" as="geometry" />
        </mxCell>
        <mxCell id="6DvJQ7CilbZiGJrXRZ5k-19" value="&lt;font style=&quot;font-size: 14px;&quot;&gt;Заказ производителю&lt;/font&gt;" style="rounded=0;whiteSpace=wrap;html=1;" vertex="1" parent="1">
          <mxGeometry x="398" y="360" width="120" height="60" as="geometry" />
        </mxCell>
        <mxCell id="6DvJQ7CilbZiGJrXRZ5k-20" value="&lt;font style=&quot;font-size: 18px;&quot;&gt;Товар&lt;/font&gt;" style="rounded=0;whiteSpace=wrap;html=1;" vertex="1" parent="1">
          <mxGeometry x="398" y="240" width="120" height="60" as="geometry" />
        </mxCell>
        <mxCell id="6DvJQ7CilbZiGJrXRZ5k-21" value="&lt;font style=&quot;font-size: 18px;&quot;&gt;Склад&lt;/font&gt;" style="rounded=0;whiteSpace=wrap;html=1;" vertex="1" parent="1">
          <mxGeometry x="198" y="240" width="120" height="60" as="geometry" />
        </mxCell>
        <mxCell id="6DvJQ7CilbZiGJrXRZ5k-23" value="Концептуальная модель мебельного салона" style="text;strokeColor=none;fillColor=none;html=1;fontSize=24;fontStyle=1;verticalAlign=middle;align=center;" vertex="1" parent="1">
          <mxGeometry x="330" y="30" width="102" height="40" as="geometry" />
        </mxCell>
        <mxCell id="6DvJQ7CilbZiGJrXRZ5k-25" value="" style="edgeStyle=entityRelationEdgeStyle;fontSize=12;html=1;endArrow=ERoneToMany;startArrow=ERmandOne;rounded=0;exitX=1;exitY=0.5;exitDx=0;exitDy=0;entryX=0;entryY=0.5;entryDx=0;entryDy=0;" edge="1" parent="1" source="6DvJQ7CilbZiGJrXRZ5k-17" target="6DvJQ7CilbZiGJrXRZ5k-18">
          <mxGeometry width="100" height="100" relative="1" as="geometry">
            <mxPoint x="448" y="360" as="sourcePoint" />
            <mxPoint x="548" y="260" as="targetPoint" />
          </mxGeometry>
        </mxCell>
        <mxCell id="6DvJQ7CilbZiGJrXRZ5k-26" value="&lt;font style=&quot;font-size: 14px;&quot;&gt;Производитель&lt;/font&gt;" style="rounded=0;whiteSpace=wrap;html=1;" vertex="1" parent="1">
          <mxGeometry x="398" y="480" width="120" height="60" as="geometry" />
        </mxCell>
        <mxCell id="6DvJQ7CilbZiGJrXRZ5k-27" value="&lt;font style=&quot;font-size: 18px;&quot;&gt;Доставка&lt;/font&gt;" style="rounded=0;whiteSpace=wrap;html=1;" vertex="1" parent="1">
          <mxGeometry x="638" y="240" width="120" height="60" as="geometry" />
        </mxCell>
        <mxCell id="6DvJQ7CilbZiGJrXRZ5k-28" value="&lt;font style=&quot;font-size: 18px;&quot;&gt;Сборка&lt;/font&gt;" style="rounded=0;whiteSpace=wrap;html=1;" vertex="1" parent="1">
          <mxGeometry x="638" y="360" width="120" height="60" as="geometry" />
        </mxCell>
        <mxCell id="6DvJQ7CilbZiGJrXRZ5k-29" value="&lt;font style=&quot;font-size: 18px;&quot;&gt;Замер&lt;/font&gt;" style="rounded=0;whiteSpace=wrap;html=1;" vertex="1" parent="1">
          <mxGeometry x="638" y="120" width="120" height="60" as="geometry" />
        </mxCell>
        <mxCell id="6DvJQ7CilbZiGJrXRZ5k-31" value="" style="fontSize=12;html=1;endArrow=ERoneToMany;startArrow=ERzeroToMany;rounded=0;entryX=0.5;entryY=0;entryDx=0;entryDy=0;exitX=0.5;exitY=1;exitDx=0;exitDy=0;" edge="1" parent="1" source="6DvJQ7CilbZiGJrXRZ5k-18" target="6DvJQ7CilbZiGJrXRZ5k-20">
          <mxGeometry width="100" height="100" relative="1" as="geometry">
            <mxPoint x="398" y="200" as="sourcePoint" />
            <mxPoint x="388" y="600" as="targetPoint" />
          </mxGeometry>
        </mxCell>
        <mxCell id="6DvJQ7CilbZiGJrXRZ5k-32" value="" style="fontSize=12;html=1;endArrow=ERzeroToMany;endFill=1;startArrow=ERzeroToMany;rounded=0;exitX=1;exitY=0.25;exitDx=0;exitDy=0;entryX=0;entryY=0.5;entryDx=0;entryDy=0;edgeStyle=orthogonalEdgeStyle;" edge="1" parent="1" source="6DvJQ7CilbZiGJrXRZ5k-18" target="6DvJQ7CilbZiGJrXRZ5k-29">
          <mxGeometry width="100" height="100" relative="1" as="geometry">
            <mxPoint x="528" y="240" as="sourcePoint" />
            <mxPoint x="628" y="140" as="targetPoint" />
          </mxGeometry>
        </mxCell>
        <mxCell id="6DvJQ7CilbZiGJrXRZ5k-33" value="" style="fontSize=12;html=1;endArrow=ERzeroToMany;endFill=1;startArrow=ERzeroToMany;rounded=0;exitX=1;exitY=0.75;exitDx=0;exitDy=0;edgeStyle=orthogonalEdgeStyle;" edge="1" parent="1" source="6DvJQ7CilbZiGJrXRZ5k-18">
          <mxGeometry width="100" height="100" relative="1" as="geometry">
            <mxPoint x="528" y="160" as="sourcePoint" />
            <mxPoint x="638" y="250" as="targetPoint" />
            <Array as="points">
              <mxPoint x="578" y="165" />
              <mxPoint x="578" y="250" />
              <mxPoint x="638" y="250" />
            </Array>
          </mxGeometry>
        </mxCell>
        <mxCell id="6DvJQ7CilbZiGJrXRZ5k-34" value="" style="fontSize=12;html=1;endArrow=ERzeroToMany;endFill=1;startArrow=ERzeroToMany;rounded=0;exitX=0.933;exitY=0.983;exitDx=0;exitDy=0;edgeStyle=orthogonalEdgeStyle;exitPerimeter=0;" edge="1" parent="1" source="6DvJQ7CilbZiGJrXRZ5k-18">
          <mxGeometry width="100" height="100" relative="1" as="geometry">
            <mxPoint x="528" y="175" as="sourcePoint" />
            <mxPoint x="638" y="370" as="targetPoint" />
            <Array as="points">
              <mxPoint x="510" y="200" />
              <mxPoint x="558" y="200" />
              <mxPoint x="558" y="310" />
              <mxPoint x="618" y="310" />
              <mxPoint x="618" y="370" />
            </Array>
          </mxGeometry>
        </mxCell>
        <mxCell id="6DvJQ7CilbZiGJrXRZ5k-38" value="" style="edgeStyle=entityRelationEdgeStyle;fontSize=12;html=1;endArrow=ERoneToMany;startArrow=ERmandOne;rounded=0;exitX=1;exitY=0.5;exitDx=0;exitDy=0;entryX=0;entryY=0.5;entryDx=0;entryDy=0;" edge="1" parent="1" source="6DvJQ7CilbZiGJrXRZ5k-21" target="6DvJQ7CilbZiGJrXRZ5k-20">
          <mxGeometry width="100" height="100" relative="1" as="geometry">
            <mxPoint x="428" y="360" as="sourcePoint" />
            <mxPoint x="528" y="260" as="targetPoint" />
          </mxGeometry>
        </mxCell>
        <mxCell id="6DvJQ7CilbZiGJrXRZ5k-40" value="" style="fontSize=12;html=1;endArrow=ERoneToMany;startArrow=ERoneToMany;rounded=0;entryX=0.5;entryY=1;entryDx=0;entryDy=0;" edge="1" parent="1" target="6DvJQ7CilbZiGJrXRZ5k-20">
          <mxGeometry width="100" height="100" relative="1" as="geometry">
            <mxPoint x="458" y="360" as="sourcePoint" />
            <mxPoint x="528" y="260" as="targetPoint" />
          </mxGeometry>
        </mxCell>
        <mxCell id="6DvJQ7CilbZiGJrXRZ5k-42" value="" style="fontSize=12;html=1;endArrow=ERoneToMany;startArrow=ERzeroToMany;rounded=0;entryX=0.75;entryY=1;entryDx=0;entryDy=0;exitX=0;exitY=0.5;exitDx=0;exitDy=0;edgeStyle=orthogonalEdgeStyle;" edge="1" parent="1" source="6DvJQ7CilbZiGJrXRZ5k-28" target="6DvJQ7CilbZiGJrXRZ5k-20">
          <mxGeometry width="100" height="100" relative="1" as="geometry">
            <mxPoint x="428" y="360" as="sourcePoint" />
            <mxPoint x="538" y="330" as="targetPoint" />
            <Array as="points">
              <mxPoint x="588" y="390" />
              <mxPoint x="588" y="330" />
              <mxPoint x="488" y="330" />
            </Array>
          </mxGeometry>
        </mxCell>
        <mxCell id="6DvJQ7CilbZiGJrXRZ5k-43" value="" style="fontSize=12;html=1;endArrow=ERoneToMany;startArrow=ERzeroToMany;rounded=0;exitX=0.5;exitY=1;exitDx=0;exitDy=0;entryX=0.5;entryY=0;entryDx=0;entryDy=0;" edge="1" parent="1" source="6DvJQ7CilbZiGJrXRZ5k-19" target="6DvJQ7CilbZiGJrXRZ5k-26">
          <mxGeometry width="100" height="100" relative="1" as="geometry">
            <mxPoint x="428" y="360" as="sourcePoint" />
            <mxPoint x="528" y="260" as="targetPoint" />
          </mxGeometry>
        </mxCell>
        <mxCell id="6DvJQ7CilbZiGJrXRZ5k-44" value="" style="edgeStyle=entityRelationEdgeStyle;fontSize=12;html=1;endArrow=ERoneToMany;startArrow=ERzeroToMany;rounded=0;entryX=1;entryY=0.5;entryDx=0;entryDy=0;exitX=0;exitY=0.5;exitDx=0;exitDy=0;" edge="1" parent="1" source="6DvJQ7CilbZiGJrXRZ5k-27" target="6DvJQ7CilbZiGJrXRZ5k-20">
          <mxGeometry width="100" height="100" relative="1" as="geometry">
            <mxPoint x="838" y="320" as="sourcePoint" />
            <mxPoint x="628" y="270" as="targetPoint" />
          </mxGeometry>
        </mxCell>
        <mxCell id="6DvJQ7CilbZiGJrXRZ5k-47" value="&lt;font style=&quot;font-size: 14px;&quot;&gt;Директор&lt;/font&gt;&lt;div&gt;&lt;font size=&quot;3&quot;&gt;магазина&lt;/font&gt;&lt;/div&gt;" style="rounded=0;whiteSpace=wrap;html=1;" vertex="1" parent="1">
          <mxGeometry y="240" width="120" height="60" as="geometry" />
        </mxCell>
        <mxCell id="6DvJQ7CilbZiGJrXRZ5k-48" value="" style="edgeStyle=entityRelationEdgeStyle;fontSize=12;html=1;endArrow=ERmandOne;startArrow=ERmandOne;rounded=0;exitX=1;exitY=0.5;exitDx=0;exitDy=0;entryX=0;entryY=0.5;entryDx=0;entryDy=0;" edge="1" parent="1" source="6DvJQ7CilbZiGJrXRZ5k-47" target="6DvJQ7CilbZiGJrXRZ5k-21">
          <mxGeometry width="100" height="100" relative="1" as="geometry">
            <mxPoint x="410" y="370" as="sourcePoint" />
            <mxPoint x="180" y="320" as="targetPoint" />
          </mxGeometry>
        </mxCell>
        <mxCell id="6DvJQ7CilbZiGJrXRZ5k-49" value="" style="edgeStyle=orthogonalEdgeStyle;fontSize=12;html=1;endArrow=ERoneToMany;startArrow=ERmandOne;rounded=0;exitX=0.5;exitY=1;exitDx=0;exitDy=0;entryX=0;entryY=0.5;entryDx=0;entryDy=0;" edge="1" parent="1" source="6DvJQ7CilbZiGJrXRZ5k-47" target="6DvJQ7CilbZiGJrXRZ5k-19">
          <mxGeometry width="100" height="100" relative="1" as="geometry">
            <mxPoint x="410" y="370" as="sourcePoint" />
            <mxPoint x="510" y="270" as="targetPoint" />
          </mxGeometry>
        </mxCell>
      </root>
    </mxGraphModel>
  </diagram>
</mxfile>
